<?xml version="1.0" encoding="UTF-8"?>
<svg id="Layer_2" data-name="Layer 2" xmlns="http://www.w3.org/2000/svg" xmlns:xlink="http://www.w3.org/1999/xlink" viewBox="0 0 815.05 810.7">
  <defs>
    <style>
      .cls-1 {
        fill: #d2fbff;
      }

      .cls-2 {
        filter: url(#outer-glow-1);
      }

      .cls-3 {
        fill: #00ff30;
      }

      .cls-4 {
        fill: #036600;
      }
    </style>
    <filter id="outer-glow-1" x="114.64" y="28.03" width="560" height="673" filterUnits="userSpaceOnUse">
      <feOffset dx="0" dy="0"/>
      <feGaussianBlur result="blur" stdDeviation="30"/>
      <feFlood flood-color="#00ff18" flood-opacity=".75"/>
      <feComposite in2="blur" operator="in"/>
      <feComposite in="SourceGraphic"/>
    </filter>
  </defs>
  <g id="head_copy" data-name="head copy">
    <g>
      <path d="M387.27.41c290.65-12.62,500.82,265.19,403.83,541.7-107.7,307.05-525.91,364.89-714.71,100.27C-110.56,380.36,65.75,14.37,387.27.41ZM715.95,630.3c73.75-101.65,93.07-232.95,51.17-351.97C692.62,66.72,449.32-31.96,245.25,61.2,86.53,133.66,1.54,305.15,33.13,476.84c10.23,55.57,33.67,107.41,65.82,153.46h617ZM694.17,657.48H120.73c93.1,102.89,235.07,148.94,371.65,118.4,78.11-17.47,148.06-59.62,201.79-118.4Z"/>
      <path class="cls-1" d="M715.95,630.3H98.95c-32.15-46.05-55.59-97.89-65.82-153.46C1.54,305.15,86.53,133.66,245.25,61.2c204.07-93.16,447.37,5.52,521.87,217.13,41.9,119.02,22.58,250.32-51.17,351.97ZM334.52,501.63c.7,23.9-.97,47.65-2.99,71.42-.89,10.49-8.94,35.52,7.59,37.44,8.54.99,29.08-15.33,37.45-20.37,45.06-27.14,84.45-42.83,136.59-52.22,7.17-1.29,26.57-2.12,31.11-5.85,3.93-3.22,3.36-8.13,2.92-12.82-2.57-27.58-10.52-51.36-9.91-81.09,1.12-55.02,35.16-78.93,43.71-128.12,24.31-139.75-105.61-218.07-230.7-183.74-73.62,20.21-107.48,78.34-105.9,152.84-10.72,24.57-26.38,48.91-36.21,73.69-10.07,25.39,5.01,36.37,29.44,34.93,3.4,38.91-14.49,99.97,34.19,116.16,11.79,3.92,25.8,3.91,38.1,2.6,8.23-.88,16.53-3.1,24.6-4.86Z"/>
      <path class="cls-2" d="M334.52,501.63c-8.07,1.76-16.37,3.98-24.6,4.86-12.3,1.31-26.31,1.32-38.1-2.6-48.68-16.19-30.79-77.25-34.19-116.16-24.43,1.45-39.51-9.54-29.44-34.93,9.83-24.78,25.48-49.12,36.21-73.69-1.57-74.51,32.28-132.64,105.9-152.84,125.09-34.33,255.01,43.99,230.7,183.74-8.56,49.19-42.59,73.1-43.71,128.12-.6,29.73,7.34,53.5,9.91,81.09.44,4.69,1.01,9.6-2.92,12.82-4.55,3.73-23.94,4.56-31.11,5.85-52.14,9.39-91.53,25.08-136.59,52.22-8.37,5.04-28.91,21.37-37.45,20.37-16.54-1.92-8.49-26.95-7.59-37.44,2.02-23.78,3.69-47.53,2.99-71.42ZM519.34,510.62c-7.88-39.29-11.94-84.15.51-122.87,7.39-22.99,22.78-40.96,30.48-63.43,17.95-52.37,2.3-115.67-42.65-149.2-52.9-39.47-158.21-41.87-205.64,7.81-27.54,28.85-30.55,63.68-32.14,101.73l-38.26,76.64c-.24,1.65-.08,1.6,1.48,1.49,2.69-.19,4.85-1.16,8-1.08,11.46.29,20.46,6.69,21.51,18.51,1.93,21.61-4.74,70.67,3.42,87.49,10.84,22.36,54.76,12.92,73.67,6.67,9.32-3.08,24.32-12.97,31.48-14.47s15.46.83,16.29,9.25c1.41,14.26-17.92,19.82-28.07,25.16,2.61,25.97-.41,52.35-2.92,78.26,48.45-32.82,104.42-54.93,162.83-61.95Z"/>
      <path class="cls-4" d="M694.17,657.48c-53.73,58.78-123.68,100.93-201.79,118.4-136.58,30.54-278.55-15.51-371.65-118.4h573.44ZM389.27,689.74c-18.3.38-65.76.66-80.61,8.3-8.52,4.38-8.51,13.39,0,17.78,12.58,6.48,49.16,8.12,64.29,8.64,31.86,1.08,100.26,2.79,128.93-7.02,16.59-5.67,14.22-17.01-1.51-21.51-27.85-7.96-81.14-6.81-111.11-6.19Z"/>
      <path d="M389.27,689.74c29.96-.62,83.25-1.77,111.11,6.19,15.73,4.49,18.1,15.83,1.51,21.51-28.68,9.81-97.08,8.09-128.93,7.02-15.13-.51-51.71-2.16-64.29-8.64-8.51-4.38-8.52-13.4,0-17.78,14.86-7.64,62.31-7.93,80.61-8.3Z"/>
      <path class="cls-3" d="M519.34,510.62c-58.41,7.01-114.38,29.13-162.83,61.95,2.51-25.91,5.53-52.29,2.92-78.26,10.15-5.34,29.48-10.9,28.07-25.16-.83-8.41-8.81-10.81-16.29-9.25s-22.17,11.39-31.48,14.47c-18.91,6.26-62.83,15.69-73.67-6.67-8.16-16.82-1.49-65.89-3.42-87.49-1.06-11.82-10.05-18.22-21.51-18.51-3.14-.08-5.31.89-8,1.08-1.56.11-1.72.16-1.48-1.49l38.26-76.64c1.59-38.05,4.6-72.87,32.14-101.73,47.43-49.69,152.74-47.28,205.64-7.81,44.94,33.53,60.6,96.83,42.65,149.2-7.7,22.47-23.09,40.44-30.48,63.43-12.45,38.72-8.38,83.57-.51,122.87Z"/>
    </g>
  </g>
</svg>